<svg width="24" height="24" viewBox="0 0 24 24" fill="none" xmlns="http://www.w3.org/2000/svg">
<g id="octicon:search-16">
<path id="Vector" d="M16.02 17.61C14.2115 19.0137 11.9361 19.6755 9.65688 19.4606C7.37768 19.2458 5.266 18.1705 3.7517 16.4536C2.2374 14.7366 1.4343 12.5072 1.50587 10.219C1.57744 7.93079 2.51831 5.75588 4.13695 4.13695C5.75588 2.51831 7.93079 1.57744 10.219 1.50587C12.5072 1.4343 14.7366 2.2374 16.4536 3.7517C18.1705 5.266 19.2458 7.37768 19.4606 9.65688C19.6755 11.9361 19.0137 14.2115 17.6099 16.02L22.1699 20.58C22.318 20.7175 22.4263 20.8924 22.4833 21.0862C22.5403 21.2801 22.544 21.4858 22.4939 21.6816C22.4439 21.8773 22.342 22.056 22.1989 22.1987C22.0558 22.3414 21.8769 22.4429 21.681 22.4925C21.4854 22.5426 21.2799 22.5391 21.0862 22.4823C20.8924 22.4256 20.7176 22.3177 20.58 22.17L16.02 17.61ZM17.25 10.5C17.2633 9.60536 17.0986 8.71704 16.7655 7.88668C16.4324 7.05631 15.9375 6.30048 15.3096 5.66314C14.6816 5.02579 13.9333 4.51967 13.108 4.17421C12.2827 3.82875 11.3969 3.65084 10.5022 3.65084C9.60751 3.65084 8.72175 3.82875 7.89644 4.17421C7.07114 4.51967 6.32276 5.02579 5.69485 5.66314C5.06694 6.30048 4.57203 7.05631 4.23891 7.88668C3.90579 8.71704 3.74111 9.60536 3.75445 10.5C3.78087 12.2721 4.50342 13.9628 5.76599 15.2067C7.02857 16.4506 8.72981 17.1478 10.5022 17.1478C12.2746 17.1478 13.9758 16.4506 15.2384 15.2067C16.501 13.9628 17.2235 12.2721 17.25 10.5Z" fill="#EEB33B"/>
</g>
</svg>
